<?xml version="1.0" encoding="UTF-8"?>
<svg width="48" height="48" viewBox="0 0 48 48" xmlns="http://www.w3.org/2000/svg">
  <path fill="#EA4335" d="M24 9.5c3.54 0 6.72 1.22 9.22 3.62l6.86-6.86C35.82 2.42 30.3 0 24 0 14.64 0 6.52 5.38 2.56 13.22l7.98 6.2C12.5 13.7 17.77 9.5 24 9.5z"/>
  <path fill="#4285F4" d="M46.1 24.55c0-1.64-.15-3.22-.43-4.75H24v9h12.4c-.53 2.86-2.14 5.28-4.56 6.92l7.02 5.45c4.1-3.78 6.24-9.35 6.24-16.62z"/>
  <path fill="#FBBC05" d="M10.54 28.42c-.5-1.48-.78-3.06-.78-4.67s.28-3.19.78-4.67l-7.98-6.2C.92 16.21 0 19.98 0 23.75s.92 7.54 2.56 10.87l7.98-6.2z"/>
  <path fill="#34A853" d="M24 48c6.3 0 11.82-2.08 15.76-5.65l-7.02-5.45c-1.95 1.32-4.44 2.1-8.74 2.1-6.23 0-11.5-4.2-13.46-9.92l-7.98 6.2C6.52 42.62 14.64 48 24 48z"/>
</svg>
