<?xml version="1.0" encoding="UTF-8"?>
<svg version="1.1" xmlns="http://www.w3.org/2000/svg" width="624" height="520">
<path d="M0 0 C205.92 0 411.84 0 624 0 C624 171.6 624 343.2 624 520 C418.08 520 212.16 520 0 520 C0 348.4 0 176.8 0 0 Z " fill="#FDFCFD" transform="translate(0,0)"/>
<path d="M0 0 C1.26054502 0.60401812 2.52232924 1.205455 3.78515625 1.8046875 C19.00497303 9.1008908 32.4185431 17.75294004 45 29 C46.45781696 30.25060218 47.91607497 31.50069064 49.375 32.75 C56.70454489 39.23794788 62.96462806 46.28974015 69 54 C69.4336084 54.55187988 69.8672168 55.10375977 70.31396484 55.67236328 C80.58855372 68.85925899 89.29654158 83.23269722 95 99 C95.2690918 99.72461426 95.53818359 100.44922852 95.81542969 101.19580078 C111.25616126 143.14845367 110.73320388 191.50080464 92.16552734 232.50683594 C69.97774272 279.96843136 32.79513704 312.39340785 -16.0625 330.75 C-35.66545528 337.45746281 -55.52432237 339.42502372 -76.125 339.375 C-77.4002655 339.37418427 -77.4002655 339.37418427 -78.70129395 339.37335205 C-92.4519007 339.33307022 -105.63964702 338.50549197 -119 335 C-120.22589844 334.67854004 -120.22589844 334.67854004 -121.4765625 334.35058594 C-146.0109228 327.662052 -168.79850071 316.39763838 -189 301 C-189.93714844 300.28714844 -190.87429687 299.57429688 -191.83984375 298.83984375 C-196.35569637 295.31544148 -200.51349291 291.63475095 -204.48828125 287.51171875 C-206.09111362 285.84551802 -206.09111362 285.84551802 -208.5 284.0625 C-233.48254412 263.4519011 -250.56294301 226.68425266 -256.1875 195.5 C-256.35185547 194.65308594 -256.51621094 193.80617187 -256.68554688 192.93359375 C-260.65519901 171.62282964 -260.40522754 149.19206851 -256 128 C-255.86609863 127.30181152 -255.73219727 126.60362305 -255.59423828 125.88427734 C-249.37588426 93.60159824 -232.93590573 63.39726016 -210 40 C-209.07264543 39.03411451 -208.14556371 38.06796699 -207.21875 37.1015625 C-198.60590362 28.27097563 -189.25200329 20.83466886 -179 14 C-178.10539062 13.39671875 -177.21078125 12.7934375 -176.2890625 12.171875 C-158.85664283 0.91629694 -140.03561237 -6.82205434 -120 -12 C-119.2064209 -12.22300781 -118.4128418 -12.44601563 -117.59521484 -12.67578125 C-80.71210977 -22.87632611 -33.81553101 -17.13540984 0 0 Z " fill="#F8FAFC" transform="translate(422,48)"/>
<path d="M0 0 C1.26054502 0.60401812 2.52232924 1.205455 3.78515625 1.8046875 C19.00497303 9.1008908 32.4185431 17.75294004 45 29 C46.45781696 30.25060218 47.91607497 31.50069064 49.375 32.75 C56.70454489 39.23794788 62.96462806 46.28974015 69 54 C69.4336084 54.55187988 69.8672168 55.10375977 70.31396484 55.67236328 C80.58855372 68.85925899 89.29654158 83.23269722 95 99 C95.2690918 99.72461426 95.53818359 100.44922852 95.81542969 101.19580078 C111.25616126 143.14845367 110.73320388 191.50080464 92.16552734 232.50683594 C69.97774272 279.96843136 32.79513704 312.39340785 -16.0625 330.75 C-35.66545528 337.45746281 -55.52432237 339.42502372 -76.125 339.375 C-77.4002655 339.37418427 -77.4002655 339.37418427 -78.70129395 339.37335205 C-92.4519007 339.33307022 -105.63964702 338.50549197 -119 335 C-120.22589844 334.67854004 -120.22589844 334.67854004 -121.4765625 334.35058594 C-146.0109228 327.662052 -168.79850071 316.39763838 -189 301 C-189.93714844 300.28714844 -190.87429687 299.57429688 -191.83984375 298.83984375 C-196.35569637 295.31544148 -200.51349291 291.63475095 -204.48828125 287.51171875 C-206.09111362 285.84551802 -206.09111362 285.84551802 -208.5 284.0625 C-233.48254412 263.4519011 -250.56294301 226.68425266 -256.1875 195.5 C-256.35185547 194.65308594 -256.51621094 193.80617187 -256.68554688 192.93359375 C-260.65519901 171.62282964 -260.40522754 149.19206851 -256 128 C-255.86609863 127.30181152 -255.73219727 126.60362305 -255.59423828 125.88427734 C-249.37588426 93.60159824 -232.93590573 63.39726016 -210 40 C-209.07264543 39.03411451 -208.14556371 38.06796699 -207.21875 37.1015625 C-198.60590362 28.27097563 -189.25200329 20.83466886 -179 14 C-178.10539062 13.39671875 -177.21078125 12.7934375 -176.2890625 12.171875 C-158.85664283 0.91629694 -140.03561237 -6.82205434 -120 -12 C-119.2064209 -12.22300781 -118.4128418 -12.44601563 -117.59521484 -12.67578125 C-80.71210977 -22.87632611 -33.81553101 -17.13540984 0 0 Z M-170 55 C-170.78246094 55.64710937 -171.56492188 56.29421875 -172.37109375 56.9609375 C-178.3645494 62.05070053 -183.21362162 67.77770811 -188 74 C-188.680625 74.8765625 -189.36125 75.753125 -190.0625 76.65625 C-202.03846695 92.56183111 -209.54691062 109.66954381 -214 129 C-214.26707764 130.02202515 -214.26707764 130.02202515 -214.53955078 131.06469727 C-216.51435417 139.38657874 -216.39861917 147.81134667 -216.375 156.3125 C-216.3737915 157.11268555 -216.37258301 157.91287109 -216.37133789 158.73730469 C-216.28597709 179.56533981 -212.61267683 196.98537837 -204 216 C-203.70722168 216.66112793 -203.41444336 217.32225586 -203.11279297 218.00341797 C-188.73660735 250.14188086 -160.18149332 273.72048221 -128.4140625 287.5625 C-90.88288831 301.82612915 -50.05062286 300.00039109 -13.5 283.71875 C6.5537768 273.87091318 25.93704195 259.26732381 39 241 C39.3928418 240.45504883 39.78568359 239.91009766 40.19042969 239.34863281 C46.62470878 230.34262034 51.68186231 221.17926032 56 211 C56.67482422 209.52080078 56.67482422 209.52080078 57.36328125 208.01171875 C67.94749219 183.27153529 69.2780599 154.00999591 63 128 C62.83902832 127.30970703 62.67805664 126.61941406 62.51220703 125.90820312 C53.75297979 89.52501525 28.73706706 59.11115956 -2.71875 39.6796875 C-12.67063568 33.7171082 -23.0234194 29.67043364 -34 26 C-35.18851563 25.5875 -36.37703125 25.175 -37.6015625 24.75 C-50.25783004 20.56203799 -62.98533622 19.62871888 -76.25 19.6875 C-76.92697937 19.68998749 -77.60395874 19.69247498 -78.30145264 19.69503784 C-113.23711333 19.89285279 -143.49678382 32.37432827 -170 55 Z " fill="#3D81E3" transform="translate(422,48)"/>
<path d="M0 0 C3.47152559 1.16926058 5.24196134 2.59365933 7.8671875 5.1328125 C8.73085937 5.95007813 9.59453125 6.76734375 10.484375 7.609375 C11.31195313 8.40085937 12.13953125 9.19234375 12.9921875 10.0078125 C14.31774482 11.18330673 15.6504764 12.35079037 16.9921875 13.5078125 C19.96610461 16.09434562 22.88999493 18.72975375 25.8046875 21.3828125 C32.06832534 27.02486796 38.48258517 32.49501555 45.3203125 37.43359375 C45.87025879 37.83320313 46.42020508 38.2328125 46.98681641 38.64453125 C48.53587053 39.76166882 50.09578906 40.86369586 51.65625 41.96484375 C53.9921875 44.0078125 53.9921875 44.0078125 55.140625 45.95703125 C54.90408011 49.22508571 52.25674142 50.8336232 49.9921875 53.0078125 C48.71028921 54.28931482 47.43149939 55.57393056 46.1550293 56.86083984 C42.18791652 60.84587198 38.21765477 64.8277515 34.24633789 68.80859375 C32.53970539 70.52025865 30.833971 72.23281951 29.12915039 73.94628906 C26.65230223 76.43534788 24.17216678 78.92109121 21.69140625 81.40625 C20.93905197 82.16376556 20.18669769 82.92128113 19.4115448 83.70175171 C15.36643822 87.74728028 11.22521793 91.5951793 6.8921051 95.32928467 C3.84263668 98.02341078 1.00339674 100.91162424 -1.84375 103.81640625 C-3.08450929 105.06978633 -4.32539826 106.32303804 -5.56640625 107.57617188 C-7.49065483 109.52542034 -9.41323983 111.47626155 -11.33349609 113.42944336 C-13.20761088 115.33357234 -15.08774572 117.23158647 -16.96875 119.12890625 C-17.54579681 119.71941269 -18.12284363 120.30991913 -18.71737671 120.9183197 C-20.11002521 122.31976982 -21.55447207 123.66940528 -23.0078125 125.0078125 C-23.6678125 125.0078125 -24.3278125 125.0078125 -25.0078125 125.0078125 C-25.0078125 125.6678125 -25.0078125 126.3278125 -25.0078125 127.0078125 C-27.76799131 129.65465063 -30.87912967 131.81867407 -34.0078125 134.0078125 C-34.74257812 134.52601563 -35.47734375 135.04421875 -36.234375 135.578125 C-44.54961475 140.57869873 -54.65501979 140.37154534 -63.9375 138.37890625 C-76.79260963 133.79953014 -89.10235516 122.57129308 -96.0703125 110.9921875 C-99.61894223 103.48092124 -100.70825795 95.14428202 -98.0625 87.15234375 C-93.93790086 78.57888452 -88.36513021 73.35023403 -81.03515625 67.49609375 C-77.91796882 64.9339668 -74.9568297 62.25866493 -72.0078125 59.5078125 C-67.42078338 55.23804613 -62.67333269 51.25018506 -57.7890625 47.3203125 C-54.23596164 44.36604886 -50.8675757 41.23867826 -47.48608398 38.09155273 C-44.274822 35.12065622 -40.98153435 32.30820173 -37.5703125 29.5703125 C-33.38542218 26.20433597 -29.42480632 22.67592541 -25.5078125 19.0078125 C-19.87461096 13.73551012 -14.05008522 8.81064466 -8.0078125 4.0078125 C-7.2034375 3.2446875 -6.3990625 2.4815625 -5.5703125 1.6953125 C-3.0078125 0.0078125 -3.0078125 0.0078125 0 0 Z " fill="#2470D4" transform="translate(184.0078125,324.9921875)"/>
<path d="M0 0 C11.92989257 1.32554362 22.12574473 3.93984655 33 9 C34.35738281 9.62841797 34.35738281 9.62841797 35.7421875 10.26953125 C45.91154425 15.38368602 56.53619032 23.51704411 63 33 C64.01450226 34.44071617 64.01450226 34.44071617 65.04949951 35.91053772 C67.83076945 40.84330956 67.53059022 45.72373555 67.45410156 51.25952148 C67.45468567 52.37245071 67.45526978 53.48537994 67.45587158 54.6320343 C67.45309415 58.29537597 67.42201658 61.95789494 67.390625 65.62109375 C67.38316144 68.16699275 67.37746905 70.71289751 67.37347412 73.25880432 C67.35978376 79.265283 67.3282875 85.2714108 67.28807616 91.27774912 C67.24327314 98.11933586 67.22135008 104.96093705 67.20129442 111.80263412 C67.15955192 125.86858477 67.08925341 139.93427629 67 154 C66.12863403 153.93016907 65.25726807 153.86033813 64.35949707 153.78839111 C63.20510132 153.6974115 62.05070557 153.60643188 60.86132812 153.51269531 C59.72183716 153.42223938 58.58234619 153.33178345 57.4083252 153.23858643 C41.93742151 152.15560654 26.828689 152.90770351 11.56860352 155.61108398 C7.72847861 156.19252291 3.86013881 156.57109569 0 157 C0 105.19 0 53.38 0 0 Z " fill="#6FD078" transform="translate(381,99)"/>
<path d="M0 0 C7.87842762 3.57051892 15.20121116 8.51226638 22.5 13.125 C23.54389893 13.78097168 24.58779785 14.43694336 25.66333008 15.11279297 C32.77629959 19.58560099 39.87684538 24.07823496 46.9753418 28.57397461 C53.77626671 32.87503761 60.62215677 37.10192812 67.47021484 41.32739258 C74.70358276 45.79834696 81.871729 50.36362878 89 55 C87.66530267 59.00409198 85.1432594 59.96083364 81.6875 62 C65.46323546 71.96809455 51.72612751 86.73913058 42 103 C36.40861199 102.48576613 32.21772752 101.00847442 27.25 98.4375 C26.1995752 97.90068604 26.1995752 97.90068604 25.12792969 97.35302734 C18.96436434 94.12415637 13.43238709 90.35071709 8 86 C7.00226563 85.22785156 6.00453125 84.45570313 4.9765625 83.66015625 C-2.07293056 78.0400944 -7.54128717 72.14430112 -13 65 C-13.33 64.67 -13.66 64.34 -14 64 C-14.12006358 62.15015663 -14.17020293 60.29573569 -14.19287109 58.44213867 C-14.20893402 57.25387985 -14.22499695 56.06562103 -14.24154663 54.84135437 C-14.28579721 49.39741086 -14.32751133 43.953602 -14.35009766 38.50952148 C-14.36673613 34.92119136 -14.4114997 31.33378147 -14.4624691 27.74579906 C-14.49613098 24.98768564 -14.50767382 22.22979067 -14.51332474 19.47149086 C-14.52330779 17.50600545 -14.55756136 15.54069193 -14.59213257 13.57548523 C-14.58928253 12.37776993 -14.5864325 11.18005463 -14.58349609 9.94604492 C-14.59158295 8.89205002 -14.5996698 7.83805511 -14.60800171 6.75212097 C-12.98490061 -0.59484947 -6.21495948 -1.12631701 0 0 Z " fill="#4E91F3" transform="translate(258,215)"/>
<path d="M0 0 C-6.0829267 20.78855877 -25.92563333 37.78352169 -44.10302734 47.98242188 C-62.7992187 58.01147279 -81.06233902 62.17667893 -102.25 62.1875 C-103.49652344 62.19974609 -104.74304688 62.21199219 -106.02734375 62.22460938 C-115.92115304 62.24011691 -125.68842957 61.62116628 -135 58 C-133.43438642 44.32565354 -118.34439222 31.88969647 -108.22705078 23.53613281 C-104.63670082 20.77237621 -100.86435754 18.35839468 -97 16 C-95.9275 15.31679688 -94.855 14.63359375 -93.75 13.9296875 C-67.8399654 -1.8442456 -29.55169507 -9.85056502 0 0 Z " fill="#FDC73E" transform="translate(448,266)"/>
<path d="M0 0 C0.07001563 15.48109549 0.12295157 30.96217918 0.15543652 46.44339561 C0.17091935 53.63126283 0.19203572 60.81903178 0.22631836 68.00683594 C0.2561776 74.27019172 0.2755647 80.53347637 0.28226548 86.79690135 C0.28618372 90.11477754 0.29698231 93.43240218 0.31719017 96.75022507 C0.33883644 100.44998199 0.34197226 104.14931147 0.34057617 107.84912109 C0.351362 108.95466843 0.36214783 110.06021576 0.3732605 111.19926453 C0.36707451 112.70531502 0.36707451 112.70531502 0.36076355 114.24179077 C0.36352893 115.11749411 0.36629431 115.99319744 0.36914349 116.89543724 C0.24732614 117.58994295 0.12550879 118.28444866 0 119 C-3.26934755 121.17956503 -4.21541186 121.39624117 -8 121 C-10.08959961 120.04125977 -10.08959961 120.04125977 -12.15234375 118.69140625 C-12.93029297 118.19060547 -13.70824219 117.68980469 -14.50976562 117.17382812 C-15.31091797 116.64208984 -16.11207031 116.11035156 -16.9375 115.5625 C-17.70384766 115.06556641 -18.47019531 114.56863281 -19.25976562 114.05664062 C-20.86071121 113.01765961 -22.449385 111.9595314 -24.02540588 110.88311768 C-27.02256164 108.90867347 -27.02256164 108.90867347 -30.51194763 107.28961182 C-35.96281421 104.53434231 -40.16058021 102.24520423 -42.36784363 96.34141541 C-43.12364716 91.88348012 -43.10980132 87.42716131 -43.0703125 82.91796875 C-43.09503475 81.25559032 -43.12299658 79.59325724 -43.15402222 77.9309845 C-43.20157482 74.45551248 -43.19590178 70.98503117 -43.15478516 67.50952148 C-43.11780245 63.96105505 -43.15931837 60.42825625 -43.27783203 56.8815918 C-44.21809017 28.58849234 -44.21809017 28.58849234 -39.09832764 21.28851318 C-34.47516 17.09455048 -29.25697 14.84090723 -23.39508057 12.85903931 C-20.2632681 11.73575767 -17.68932319 10.08954988 -14.9609375 8.203125 C-13.7853125 7.44902344 -13.7853125 7.44902344 -12.5859375 6.6796875 C-11.04102437 5.68068007 -9.49680939 4.68059254 -7.953125 3.6796875 C-7.19257813 3.19242188 -6.43203125 2.70515625 -5.6484375 2.203125 C-4.66109619 1.56358887 -4.66109619 1.56358887 -3.65380859 0.91113281 C-2 0 -2 0 0 0 Z " fill="#FDD443" transform="translate(369,142)"/>
<path d="M0 0 C0 19.47 0 38.94 0 59 C-4.20897877 58.15820425 -5.90774661 57.69680526 -9.30859375 55.55078125 C-10.1281958 55.03878174 -10.94779785 54.52678223 -11.79223633 53.99926758 C-12.66517334 53.44263428 -13.53811035 52.88600098 -14.4375 52.3125 C-15.34459717 51.74104248 -16.25169434 51.16958496 -17.1862793 50.58081055 C-19.1187432 49.36179545 -21.04910454 48.13944196 -22.97753906 46.9140625 C-26.06641528 44.95794057 -29.16842015 43.0241307 -32.2734375 41.09375 C-34.28680616 39.83388902 -36.29983666 38.57348745 -38.3125 37.3125 C-39.76257446 36.41301636 -39.76257446 36.41301636 -41.24194336 35.49536133 C-42.57044312 34.65654419 -42.57044312 34.65654419 -43.92578125 33.80078125 C-44.71380127 33.30747314 -45.50182129 32.81416504 -46.3137207 32.3059082 C-46.87019287 31.8749585 -47.42666504 31.44400879 -48 31 C-48 30.34 -48 29.68 -48 29 C-45.38795701 27.20052343 -42.76797458 25.52482435 -40.0625 23.875 C-38.3352814 22.80444324 -36.60875637 21.73276691 -34.8828125 20.66015625 C-33.47563965 19.78834717 -33.47563965 19.78834717 -32.04003906 18.89892578 C-26.47311606 15.42161073 -20.95852318 11.86205045 -15.4375 8.3125 C-13.29098362 6.9326303 -11.14389316 5.55365303 -8.99609375 4.17578125 C-8.08013428 3.58708252 -7.1641748 2.99838379 -6.22045898 2.3918457 C-2.40466585 0 -2.40466585 0 0 0 Z " fill="#EA2C2A" transform="translate(318,175)"/>
</svg>
