<svg class="icon" viewBox="0 0 24 24" fill="none" stroke="currentColor">
  <circle cx="12" cy="12" r="3"/>
  <path d="M19.4 15a1.6 1.6 0 00.3 1.7l.1.1a2 2 0 01-2.8 2.8l-.1-.1a1.6 1.6 0 00-1.7-.3 1.6 1.6 0 00-1 1.5V21a2 2 0 01-4 0v-.1a1.6 1.6 0 00-1-1.5 1.6 1.6 0 00-1.7.3l-.1.1a2 2 0 01-2.8-2.8l.1-.1a1.6 1.6 0 00.3-1.7 1.6 1.6 0 00-1.5-1H3a2 2 0 010-4h.1a1.6 1.6 0 001.5-1 1.6 1.6 0 00-.3-1.7l-.1-.1a2 2 0 012.8-2.8l.1.1a1.6 1.6 0 001.7.3 1.6 1.6 0 001-1.5V3a2 2 0 014 0v.1a1.6 1.6 0 001 1.5 1.6 1.6 0 001.7-.3l.1-.1a2 2 0 012.8 2.8l-.1.1a1.6 1.6 0 00-.3 1.7 1.6 1.6 0 001.5 1H21a2 2 0 010 4h-.1a1.6 1.6 0 00-1.5 1z"/>
</svg>
